<svg width="23" height="23" viewBox="0 0 23 23" fill="none" xmlns="http://www.w3.org/2000/svg">
<path d="M11.5 2.15625C10.6756 2.15619 9.85924 2.31852 9.09758 2.63397C8.33592 2.94943 7.64387 3.41183 7.06093 3.99476C6.47799 4.5777 6.01559 5.26976 5.70013 6.03142C5.38468 6.79308 5.22235 7.60941 5.22241 8.43381C5.22241 13.3467 10.015 19.2587 11.2709 20.711C11.3384 20.7882 11.4337 20.8355 11.5359 20.8427C11.6382 20.8499 11.7391 20.8163 11.8167 20.7494L11.855 20.711C13.0942 19.2529 17.7771 13.3467 17.7771 8.43333C17.7771 7.60902 17.6147 6.79277 17.2992 6.0312C16.9838 5.26963 16.5214 4.57765 15.9385 3.99476C15.3557 3.41188 14.6637 2.94952 13.9021 2.63406C13.1405 2.31861 12.3243 2.15625 11.5 2.15625ZM11.5 10.1372C11.0789 10.1372 10.6673 10.0124 10.3172 9.77846C9.9671 9.54453 9.69423 9.21203 9.53309 8.82302C9.37196 8.43401 9.3298 8.00595 9.41194 7.59298C9.49409 7.18 9.69685 6.80066 9.99459 6.50293C10.2923 6.20519 10.6717 6.00243 11.0846 5.92028C11.4976 5.83814 11.9257 5.8803 12.3147 6.04143C12.7037 6.20256 13.0362 6.47544 13.2701 6.82554C13.5041 7.17564 13.6289 7.58725 13.6289 8.00831V8.01358C13.6275 8.5773 13.4026 9.11745 13.0035 9.51556C12.6044 9.91368 12.0637 10.1373 11.5 10.1372Z" stroke="black" stroke-linecap="round" stroke-linejoin="round"/>
</svg>
