<svg width="49" height="30" viewBox="0 0 49 30" fill="none" xmlns="http://www.w3.org/2000/svg">
<g clip-path="url(#clip0_279_101)">
<path d="M29.1875 5.56763L42.9688 14.0051C43.1829 14.1358 43.3528 14.291 43.4687 14.4619C43.5847 14.6329 43.6444 14.8161 43.6444 15.0012C43.6444 15.1863 43.5847 15.3696 43.4687 15.5405C43.3528 15.7114 43.1829 15.8667 42.9688 15.9973L29.1875 24.4348C28.756 24.699 28.1708 24.8474 27.5606 24.8474C26.9504 24.8474 26.3651 24.699 25.9336 24.4348C25.5021 24.1706 25.2597 23.8123 25.2597 23.4387C25.2597 23.0651 25.5021 22.7068 25.9336 22.4426L35.793 16.4063L7.65625 16.4063C7.04708 16.4063 6.46286 16.2581 6.03211 15.9944C5.60137 15.7307 5.35938 15.373 5.35938 15.0001C5.35938 14.6271 5.60137 14.2694 6.03211 14.0057C6.46286 13.742 7.04708 13.5938 7.65625 13.5938L35.793 13.5938L25.9317 7.55747C25.5002 7.29329 25.2578 6.93499 25.2578 6.56138C25.2578 6.18777 25.5002 5.82947 25.9317 5.56528C26.3632 5.30111 26.9484 5.15269 27.5587 5.15269C28.1689 5.15269 28.7541 5.30111 29.1856 5.56529L29.1875 5.56763Z" fill="black"/>
</g>
<defs>
<clipPath id="clip0_279_101">
<rect width="30" height="49" fill="white" transform="translate(0 30) rotate(-90)"/>
</clipPath>
</defs>
</svg>
