<svg width="49" height="30" viewBox="0 0 49 30" fill="none" xmlns="http://www.w3.org/2000/svg">
<g clip-path="url(#clip0_24_823)">
<path d="M19.8125 5.56763L6.03121 14.0051C5.81708 14.1358 5.64718 14.291 5.53125 14.4619C5.41533 14.6329 5.35565 14.8161 5.35565 15.0012C5.35565 15.1863 5.41533 15.3696 5.53125 15.5405C5.64718 15.7114 5.81708 15.8667 6.03121 15.9973L19.8125 24.4348C20.244 24.699 20.8292 24.8474 21.4394 24.8474C22.0496 24.8474 22.6349 24.699 23.0664 24.4348C23.4979 24.1706 23.7403 23.8123 23.7403 23.4387C23.7403 23.0651 23.4979 22.7068 23.0664 22.4426L13.207 16.4063L41.3437 16.4063C41.9529 16.4063 42.5371 16.2581 42.9679 15.9944C43.3986 15.7307 43.6406 15.373 43.6406 15.0001C43.6406 14.6271 43.3986 14.2694 42.9679 14.0057C42.5371 13.742 41.9529 13.5938 41.3437 13.5938L13.207 13.5938L23.0683 7.55747C23.4998 7.29329 23.7422 6.93499 23.7422 6.56138C23.7422 6.18777 23.4998 5.82947 23.0683 5.56528C22.6368 5.30111 22.0516 5.15269 21.4413 5.15269C20.8311 5.15269 20.2459 5.30111 19.8144 5.56529L19.8125 5.56763Z" fill="black"/>
</g>
<defs>
<clipPath id="clip0_24_823">
<rect width="30" height="49" fill="white" transform="matrix(-1.19249e-08 -1 -1 1.19249e-08 49 30)"/>
</clipPath>
</defs>
</svg>
