<svg width="14" height="9" viewBox="0 0 14 9" fill="none" xmlns="http://www.w3.org/2000/svg">
<path d="M14 4.50014V8.50002C14 8.63262 13.9473 8.75979 13.8536 8.85356C13.7598 8.94732 13.6326 9 13.5 9H9.50009C9.36748 9 9.24031 8.94732 9.14654 8.85356C9.05278 8.75979 9.0001 8.63262 9.0001 8.50002C9.0001 8.36741 9.05278 8.24024 9.14654 8.14647C9.24031 8.05271 9.36748 8.00003 9.50009 8.00003H12.2932L7.50013 3.20705L5.35392 5.35386C5.30749 5.40035 5.25234 5.43723 5.19164 5.46239C5.13095 5.48755 5.06588 5.5005 5.00018 5.5005C4.93447 5.5005 4.86941 5.48755 4.80871 5.46239C4.74801 5.43723 4.69287 5.40035 4.64644 5.35386L0.146525 0.854002C0.0527067 0.760184 -9.88538e-10 0.63294 0 0.500262C9.88538e-10 0.367585 0.0527067 0.240341 0.146525 0.146523C0.240344 0.052706 0.367589 9.88528e-10 0.500268 0C0.632947 -9.88527e-10 0.760193 0.052706 0.854011 0.146523L5.00018 4.29327L7.14639 2.14646C7.19282 2.09997 7.24796 2.0631 7.30866 2.03794C7.36936 2.01277 7.43442 1.99982 7.50013 1.99982C7.56584 1.99982 7.6309 2.01277 7.6916 2.03794C7.75229 2.0631 7.80744 2.09997 7.85387 2.14646L13 7.29318V4.50014C13 4.36753 13.0527 4.24036 13.1465 4.1466C13.2402 4.05283 13.3674 4.00015 13.5 4.00015C13.6326 4.00015 13.7598 4.05283 13.8536 4.1466C13.9473 4.24036 14 4.36753 14 4.50014Z" fill="#FF0000"/>
</svg>
