<svg width="16" height="13" viewBox="0 0 16 13" fill="none" xmlns="http://www.w3.org/2000/svg">
<path d="M5 6C5.79565 6 6.55871 5.68393 7.12132 5.12132C7.68393 4.55871 8 3.79565 8 3C8 2.20435 7.68393 1.44129 7.12132 0.87868C6.55871 0.31607 5.79565 0 5 0C4.20435 0 3.44129 0.31607 2.87868 0.87868C2.31607 1.44129 2 2.20435 2 3C2 3.79565 2.31607 4.55871 2.87868 5.12132C3.44129 5.68393 4.20435 6 5 6ZM11.75 6C12.3467 6 12.919 5.76295 13.341 5.34099C13.7629 4.91903 14 4.34674 14 3.75C14 3.15326 13.7629 2.58097 13.341 2.15901C12.919 1.73705 12.3467 1.5 11.75 1.5C11.1533 1.5 10.581 1.73705 10.159 2.15901C9.73705 2.58097 9.5 3.15326 9.5 3.75C9.5 4.34674 9.73705 4.91903 10.159 5.34099C10.581 5.76295 11.1533 6 11.75 6ZM2.375 7.5C1.34 7.5 0.5 8.34 0.5 9.375C0.5 9.375 0.5 12.75 5 12.75C8.567 12.75 9.3065 10.629 9.4595 9.75C9.5 9.5205 9.5 9.375 9.5 9.375C9.5 8.34 8.66 7.5 7.625 7.5H2.375ZM10.994 9.9C10.991 9.96 10.985 10.031 10.976 10.113C10.8932 10.7315 10.6784 11.3249 10.346 11.853C10.7435 11.9445 11.207 12 11.7485 12C15.4985 12 15.4985 9.375 15.4985 9.375C15.4985 8.34 14.6585 7.5 13.6235 7.5H10.43C10.79 8.037 10.9985 8.6805 10.9985 9.375V9.75L10.994 9.9Z" fill="#1D5C96"/>
</svg>
