<svg width="23" height="23" viewBox="0 0 23 23" fill="none" xmlns="http://www.w3.org/2000/svg">
<path d="M15.2885 7.13004V7.54942L15.7055 7.5941C16.9458 7.72699 17.7622 8.09927 18.2836 8.67471C19.0419 9.51955 19.0423 10.674 18.9415 11.5837L18.2885 16.7984L18.2884 16.7984L18.2876 16.8062C18.1934 17.6765 17.9769 18.4617 17.3838 19.0402C16.794 19.6155 15.7463 20.0674 13.8044 20.0674H8.59586C6.65385 20.0674 5.60645 19.6155 5.01676 19.0393C4.42362 18.4598 4.20695 17.6724 4.11269 16.7971L4.11276 16.7971L4.11173 16.7889L3.45878 11.5933C3.35791 10.6734 3.35854 9.51936 4.1166 8.67474C4.638 8.09928 5.4544 7.72699 6.6947 7.5941L7.1117 7.54942V7.13004V6.58865C7.1117 4.47852 8.82162 2.53916 10.7961 2.34877C11.9647 2.23965 13.0846 2.60851 13.9471 3.39567L13.9471 3.39567L13.9492 3.3975C14.8021 4.1668 15.2885 5.27252 15.2885 6.42063V7.13004ZM10.8409 2.71677L10.8409 2.71677L10.8385 2.717C9.91182 2.80525 9.07238 3.31567 8.47102 4.01336C7.86891 4.71192 7.47574 5.63166 7.47574 6.58865V7.07403V7.54075H7.94245H14.4578H14.9245V7.07403V6.42063C14.9245 5.37613 14.4876 4.37233 13.7069 3.66639C12.9173 2.95147 11.901 2.62136 10.8409 2.71677ZM7.1957 13.8041C7.1957 16.0127 8.9915 17.8085 11.2001 17.8085C13.4087 17.8085 15.2045 16.0127 15.2045 13.8041C15.2045 11.5954 13.4087 9.79963 11.2001 9.79963C8.9915 9.79963 7.1957 11.5954 7.1957 13.8041Z" fill="#1D5C96" stroke="#1D5C96" stroke-width="0.933435"/>
<path d="M9.57796 14.0732L9.57796 14.0732C9.48953 13.9847 9.48953 13.8322 9.57796 13.7438L9.57797 13.7438C9.66639 13.6553 9.81892 13.6553 9.90736 13.7438L10.3554 14.1918L10.6728 14.5092L11.0023 14.2044L12.4958 12.8229L12.4958 12.8229L12.4974 12.8215C12.5861 12.7387 12.739 12.7416 12.8272 12.8361C12.9098 12.9246 12.9071 13.0771 12.8131 13.1654L10.8325 14.9972C10.7708 15.049 10.711 15.0659 10.6668 15.0659C10.6065 15.0659 10.5499 15.0451 10.5021 14.9973C10.5021 14.9973 10.5021 14.9973 10.5021 14.9973L9.57796 14.0732Z" fill="#1D5C96" stroke="#1D5C96" stroke-width="0.933435"/>
</svg>
