<svg width="224" height="144" viewBox="0 0 224 144" fill="none" xmlns="http://www.w3.org/2000/svg">
<path d="M224 8V72C224 74.1217 223.157 76.1566 221.657 77.6569C220.157 79.1571 218.122 80 216 80C213.878 80 211.843 79.1571 210.343 77.6569C208.843 76.1566 208 74.1217 208 72V27.31L125.66 109.66C124.917 110.404 124.035 110.994 123.064 111.396C122.092 111.799 121.051 112.006 120 112.006C118.949 112.006 117.908 111.799 116.937 111.396C115.965 110.994 115.083 110.404 114.34 109.66L80.0001 75.31L13.6601 141.66C12.1589 143.161 10.123 144.004 8.00005 144.004C5.87714 144.004 3.84118 143.161 2.34005 141.66C0.838929 140.159 -0.00439453 138.123 -0.00439453 136C-0.00439453 133.877 0.838929 131.841 2.34005 130.34L74.34 58.34C75.083 57.5962 75.9653 57.0061 76.9365 56.6035C77.9077 56.2009 78.9487 55.9937 80.0001 55.9937C81.0514 55.9937 82.0924 56.2009 83.0636 56.6035C84.0348 57.0061 84.9171 57.5962 85.6601 58.34L120 92.69L196.69 16H152C149.878 16 147.843 15.1571 146.343 13.6569C144.843 12.1566 144 10.1217 144 8C144 5.87827 144.843 3.84344 146.343 2.34315C147.843 0.842856 149.878 0 152 0H216C218.122 0 220.157 0.842856 221.657 2.34315C223.157 3.84344 224 5.87827 224 8Z" fill="#16C098"/>
</svg>
